<svg clip-rule="evenodd" fill-rule="evenodd" stroke-linejoin="round" stroke-miterlimit="2" viewBox="0 0 200 68" xmlns="http://www.w3.org/2000/svg"><g fill-rule="nonzero"><path d="m95.538 21.055c-1.435-3.816-3.582-7.325-6.328-10.339-2.872-3.139-6.379-5.631-10.288-7.31-4.061-1.728-8.433-2.602-12.846-2.567h-19.654v8.554h19.654c6.949 0 12.485 2.326 16.917 7.099 2.012 2.208 3.569 4.791 4.583 7.601 1.079 2.966 1.622 6.1 1.604 9.256.023 3.189-.52 6.357-1.604 9.356-1.015 2.817-2.58 5.404-4.603 7.611-4.372 4.893-9.898 7.27-16.897 7.27h-19.654v8.433h19.654c4.413.035 8.785-.839 12.846-2.567 3.936-1.695 7.455-4.232 10.308-7.43 2.729-3.053 4.868-6.586 6.308-10.419 2.941-7.927 2.941-16.652 0-24.578z" fill="#fff"/><g fill="#d32f2f"><path d="m105.285 66.19h8.523l44.283-65.351h-8.534z"/><path d="m35.201 66.23v-10.439l-22.252-22.252 22.252-22.251v-10.449l-32.701 32.7z"/><path d="m164.799.839v10.449l22.252 22.251-22.252 22.252v10.439l32.701-32.691-32.701-32.7z"/></g></g></svg>