<svg clip-rule="evenodd" fill-rule="evenodd" stroke-miterlimit="10" viewBox="0 0 573 68" xmlns="http://www.w3.org/2000/svg"><g fill-rule="nonzero"><g fill="#fff"><path d="m79.548 20.646c-1.172-3.095-2.923-5.941-5.162-8.379-2.324-2.553-5.17-4.578-8.344-5.936-3.264-1.386-6.777-2.095-10.323-2.081h-16.053v6.882h15.95c5.209-.196 10.249 1.915 13.764 5.763 1.627 1.793 2.89 3.885 3.716 6.16 1.748 4.876 1.748 10.213 0 15.089-.829 2.283-2.097 4.38-3.734 6.176-3.463 3.934-8.526 6.098-13.764 5.885h-15.932v6.882h15.95c3.546.013 7.059-.695 10.323-2.082 3.226-1.351 6.111-3.402 8.447-6.005 2.223-2.476 3.973-5.339 5.162-8.448 2.381-6.42 2.381-13.485 0-19.906z" stroke="#fff" stroke-width="5.16"/><path d="m89.32 57.104h35.46v-7.02h-28.595v-15.949h22.281v-6.934h-22.281v-16.035h28.595v-6.934h-35.46z" stroke="#fff" stroke-width="5.16"/><path d="m173.505 4.232-17.601 39.263-17.583-39.263h-7.502l25.085 56.21 25.171-56.21z" stroke="#fff" stroke-width="5.16"/><path d="m266.568 43.374c-1.872 2.302-4.221 4.176-6.882 5.489-5.864 2.845-12.775 2.587-18.41-.689-3.014-1.772-5.516-4.297-7.26-7.329-3.598-6.232-3.598-13.933 0-20.164 1.741-3.051 4.242-5.601 7.26-7.399 3.006-1.775 6.437-2.703 9.927-2.684 2.755-.013 5.48.573 7.984 1.721 2.512 1.153 4.755 2.818 6.589 4.886l1.136 1.273 5.333-4.611-1.204-1.29c-2.562-2.774-5.666-4.993-9.119-6.521-7.801-3.513-16.844-3.012-24.207 1.342-4.03 2.378-7.378 5.757-9.721 9.807-2.375 4.097-3.61 8.754-3.579 13.489-.027 9.594 5.052 18.511 13.317 23.382 7.625 4.492 17.016 4.874 24.982 1.015 3.606-1.746 6.772-4.288 9.256-7.433l1.084-1.359-5.437-4.232z"/><path d="m172.49 57.224h7.605l18.186-39.141 17.308 39.141h7.484l-24.569-55.934z"/><path d="m275.153 57.224h7.605l18.185-39.141 17.309 39.141h7.484l-24.569-55.934z"/><path d="m366.874 12.353c-2.33-2.543-5.176-4.561-8.345-5.918-3.295-1.406-6.844-2.115-10.426-2.082h-15.932v52.871h15.932c3.58.028 7.13-.681 10.426-2.082 3.188-1.383 6.039-3.437 8.362-6.021 2.223-2.476 3.972-5.339 5.161-8.448 2.385-6.426 2.385-13.498 0-19.924-1.187-3.097-2.944-5.946-5.178-8.396zm-27.838-1.066h9.067c5.209-.203 10.252 1.908 13.764 5.763 1.634 1.783 2.904 3.87 3.733 6.143 1.721 4.881 1.721 10.207 0 15.088-.875 2.296-2.197 4.395-3.888 6.177-3.458 3.943-8.523 6.116-13.764 5.901h-9.067z"/><path d="m381.756 57.224h35.46v-7.019h-28.595v-15.95h22.28v-6.933h-22.28v-16.035h28.595v-6.934h-35.46z"/><path d="m426.851.052v57.172h6.864v-35.494l20.492 28.922 20.164-28.784v35.356h6.865v-57.224l-27.046 38.66-27.339-38.608z"/></g><path d="m533.66 4.232-35.89 52.992h6.899l35.908-52.992z" fill="#d32e2e"/><path d="m500.661 4.232h-6.917l17.24 25.172 3.458-5.093z" fill="#fff"/><path d="m26.917 57.259v-8.465l-18.048-18.048 18.048-18.049v-8.465l-26.513 26.514z" fill="#d32e2e"/><path d="m546.031 4.232v8.465l18.031 18.049-18.031 18.048v8.465l26.495-26.513z" fill="#d32e2e"/></g></svg>