<svg xmlns="http://www.w3.org/2000/svg" viewBox="0 0 194.46 65.21"><defs><style>.cls-1{fill:#414042;}.cls-2{fill:#d32e2e;}</style></defs><title>devacademy-icon-logo</title><g id="Layer_2" data-name="Layer 2"><g id="Layer_1-2" data-name="Layer 1"><g id="LOGO"><path class="cls-1" d="M92.78,20.16A32.07,32.07,0,0,0,86.47,9.85,29.91,29.91,0,0,0,76.21,2.56,32.06,32.06,0,0,0,63.4,0H43.8V8.53H63.4c6.93,0,12.45,2.32,16.87,7.08a22.67,22.67,0,0,1,4.57,7.58,26.54,26.54,0,0,1,1.6,9.23,26.86,26.86,0,0,1-1.6,9.33,22.54,22.54,0,0,1-4.59,7.59c-4.36,4.88-9.87,7.25-16.85,7.25H43.8V65H63.4a32.06,32.06,0,0,0,12.81-2.56,29.31,29.31,0,0,0,10.28-7.41,33,33,0,0,0,6.29-10.39,35.23,35.23,0,0,0,0-24.51Z"/><polygon class="cls-2" points="102.5 65.17 111 65.17 155.16 0 146.65 0 102.5 65.17"/><polygon class="cls-2" points="32.61 65.21 32.61 54.8 10.42 32.61 32.61 10.42 32.61 0 0 32.61 32.61 65.21"/><polygon class="cls-2" points="161.85 0 161.85 10.42 184.04 32.61 161.85 54.8 161.85 65.21 194.46 32.61 161.85 0"/></g></g></g></svg>