<?xml version="1.0" encoding="UTF-8" standalone="no"?>
<!DOCTYPE svg PUBLIC "-//W3C//DTD SVG 1.1//EN" "http://www.w3.org/Graphics/SVG/1.1/DTD/svg11.dtd">
<svg width="100%" height="100%" viewBox="0 0 333 39" version="1.1" xmlns="http://www.w3.org/2000/svg" xmlns:xlink="http://www.w3.org/1999/xlink" xml:space="preserve" xmlns:serif="http://www.serif.com/" style="fill-rule:evenodd;clip-rule:evenodd;stroke-miterlimit:10;">
    <g id="_DEVacademy_">
        <path d="M46,12C45.319,10.201 44.301,8.547 43,7.13C41.649,5.646 39.995,4.469 38.15,3.68C36.253,2.874 34.211,2.462 32.15,2.47L22.82,2.47L22.82,6.47L32.09,6.47C35.118,6.356 38.047,7.583 40.09,9.82C41.036,10.862 41.77,12.078 42.25,13.4C43.266,16.234 43.266,19.336 42.25,22.17C41.768,23.497 41.031,24.716 40.08,25.76C38.067,28.046 35.124,29.304 32.08,29.18L22.82,29.18L22.82,33.18L32.09,33.18C34.151,33.188 36.193,32.776 38.09,31.97C39.965,31.185 41.642,29.993 43,28.48C44.292,27.041 45.309,25.377 46,23.57C47.384,19.838 47.384,15.732 46,12Z" style="fill:rgb(65,64,66);fill-rule:nonzero;stroke:rgb(65,64,66);stroke-width:3px;"/>
        <path d="M51.68,33.19L72.29,33.19L72.29,29.11L55.67,29.11L55.67,19.84L68.62,19.84L68.62,15.81L55.67,15.81L55.67,6.49L72.29,6.49L72.29,2.46L51.68,2.46L51.68,33.19Z" style="fill:rgb(65,64,66);fill-rule:nonzero;stroke:rgb(65,64,66);stroke-width:3px;"/>
        <path d="M100.61,2.46L90.38,25.28L80.16,2.46L75.8,2.46L90.38,35.13L105.01,2.46L100.61,2.46Z" style="fill:rgb(65,64,66);fill-rule:nonzero;stroke:rgb(65,64,66);stroke-width:3px;"/>
        <path d="M154.7,25.21C153.612,26.548 152.247,27.637 150.7,28.4C147.292,30.054 143.275,29.904 140,28C138.248,26.97 136.794,25.502 135.78,23.74C133.689,20.118 133.689,15.642 135.78,12.02C136.792,10.247 138.246,8.765 140,7.72C141.747,6.688 143.741,6.149 145.77,6.16C147.371,6.152 148.955,6.493 150.41,7.16C151.87,7.83 153.174,8.798 154.24,10L154.9,10.74L158,8.06L157.3,7.31C155.811,5.698 154.007,4.408 152,3.52C147.466,1.478 142.21,1.769 137.93,4.3C135.588,5.682 133.642,7.646 132.28,10C130.9,12.381 130.182,15.088 130.2,17.84C130.184,23.416 133.136,28.599 137.94,31.43C142.372,34.041 147.83,34.263 152.46,32.02C154.556,31.005 156.396,29.528 157.84,27.7L158.47,26.91L155.31,24.45L154.7,25.21Z" style="fill:rgb(65,64,66);fill-rule:nonzero;"/>
        <path d="M100.02,33.26L104.44,33.26L115.01,10.51L125.07,33.26L129.42,33.26L115.14,0.75L100.02,33.26Z" style="fill:rgb(65,64,66);fill-rule:nonzero;"/>
        <path d="M159.69,33.26L164.11,33.26L174.68,10.51L184.74,33.26L189.09,33.26L174.81,0.75L159.69,33.26Z" style="fill:rgb(65,64,66);fill-rule:nonzero;"/>
        <path d="M213,7.18C211.646,5.702 209.992,4.529 208.15,3.74C206.235,2.923 204.172,2.511 202.09,2.53L192.83,2.53L192.83,33.26L202.09,33.26C204.171,33.276 206.234,32.864 208.15,32.05C210.003,31.246 211.66,30.052 213.01,28.55C214.302,27.111 215.319,25.447 216.01,23.64C217.396,19.905 217.396,15.795 216.01,12.06C215.32,10.26 214.299,8.604 213,7.18ZM196.82,6.56L202.09,6.56C205.118,6.442 208.049,7.669 210.09,9.91C211.04,10.946 211.778,12.159 212.26,13.48C213.26,16.317 213.26,19.413 212.26,22.25C211.751,23.584 210.983,24.804 210,25.84C207.99,28.132 205.046,29.395 202,29.27L196.73,29.27L196.82,6.56Z" style="fill:rgb(65,64,66);fill-rule:nonzero;"/>
        <path d="M221.65,33.26L242.26,33.26L242.26,29.18L225.64,29.18L225.64,19.91L238.59,19.91L238.59,15.88L225.64,15.88L225.64,6.56L242.26,6.56L242.26,2.53L221.65,2.53L221.65,33.26Z" style="fill:rgb(65,64,66);fill-rule:nonzero;"/>
        <path d="M247.86,0.03L247.86,33.26L251.85,33.26L251.85,12.63L263.76,29.44L275.48,12.71L275.48,33.26L279.47,33.26L279.47,0L263.75,22.47L247.86,0.03Z" style="fill:rgb(65,64,66);fill-rule:nonzero;"/>
        <path d="M309.94,2.46L289.08,33.26L293.09,33.26L313.96,2.46L309.94,2.46Z" style="fill:rgb(211,46,46);fill-rule:nonzero;"/>
        <path d="M290.76,2.46L286.74,2.46L296.76,17.09L298.77,14.13L290.76,2.46Z" style="fill:rgb(65,64,66);fill-rule:nonzero;"/>
        <path d="M15.41,33.28L15.41,28.36L4.92,17.87L15.41,7.38L15.41,2.46L0,17.87L15.41,33.28Z" style="fill:rgb(211,46,46);fill-rule:nonzero;"/>
        <path d="M317.13,2.46L317.13,7.38L327.61,17.87L317.13,28.36L317.13,33.28L332.53,17.87L317.13,2.46Z" style="fill:rgb(211,46,46);fill-rule:nonzero;"/>
    </g>
</svg>
