<svg viewBox="0 0 194.46 65.21" xmlns="http://www.w3.org/2000/svg"><path d="m92.78 20.16a32.07 32.07 0 0 0 -6.31-10.31 29.91 29.91 0 0 0 -10.26-7.29 32.06 32.06 0 0 0 -12.81-2.56h-19.6v8.53h19.6c6.93 0 12.45 2.32 16.87 7.08a22.67 22.67 0 0 1 4.57 7.58 26.54 26.54 0 0 1 1.6 9.23 26.86 26.86 0 0 1 -1.6 9.33 22.54 22.54 0 0 1 -4.59 7.59c-4.36 4.88-9.87 7.25-16.85 7.25h-19.6v8.41h19.6a32.06 32.06 0 0 0 12.81-2.56 29.31 29.31 0 0 0 10.28-7.41 33 33 0 0 0 6.29-10.39 35.23 35.23 0 0 0 0-24.51z" fill="#fff"/><g fill="#d32e2e"><path d="m102.5 65.17h8.5l44.16-65.17h-8.51z"/><path d="m32.61 65.21v-10.41l-22.19-22.19 22.19-22.19v-10.42l-32.61 32.61z"/><path d="m161.85 0v10.42l22.19 22.19-22.19 22.19v10.41l32.61-32.6z"/></g></svg>