<svg xmlns="http://www.w3.org/2000/svg" viewBox="0 0 332.53 38.8"><defs><style>.cls-1,.cls-2{fill:#414042;}.cls-1{stroke:#414042;stroke-miterlimit:10;stroke-width:3px;}.cls-3{fill:#d32e2e;}.cls-4{fill:#1a1a1a;}</style></defs><title>devacademy-logo</title><g id="Layer_2" data-name="Layer 2"><g id="Layer_1-2" data-name="Layer 1"><g id="_DEVacademy_" data-name="&lt;DEVacademy/&gt;"><path class="cls-1" d="M46,12a15.11,15.11,0,0,0-3-4.87,14,14,0,0,0-4.85-3.45,15.2,15.2,0,0,0-6-1.21H22.82v4h9.27a10.31,10.31,0,0,1,8,3.35,10.82,10.82,0,0,1,2.16,3.58,13,13,0,0,1,0,8.77,10.82,10.82,0,0,1-2.17,3.59,10.11,10.11,0,0,1-8,3.42H22.82v4h9.27a15.2,15.2,0,0,0,6-1.21A13.72,13.72,0,0,0,43,28.48a15.78,15.78,0,0,0,3-4.91A16.64,16.64,0,0,0,46,12Z"/><polygon class="cls-1" points="51.68 33.19 72.29 33.19 72.29 29.11 55.67 29.11 55.67 19.84 68.62 19.84 68.62 15.81 55.67 15.81 55.67 6.49 72.29 6.49 72.29 2.46 51.68 2.46 51.68 33.19"/><polygon class="cls-1" points="100.61 2.46 90.38 25.28 80.16 2.46 75.8 2.46 90.38 35.13 105.01 2.46 100.61 2.46"/><path class="cls-2" d="M154.7,25.21a12,12,0,0,1-4,3.19A11.39,11.39,0,0,1,140,28a11.73,11.73,0,0,1-4.22-4.26,11.72,11.72,0,0,1,0-11.72A11.83,11.83,0,0,1,140,7.72a11.22,11.22,0,0,1,5.77-1.56,11,11,0,0,1,4.64,1A11.57,11.57,0,0,1,154.24,10l.66.74L158,8.06l-.7-.75A16.07,16.07,0,0,0,152,3.52a15.3,15.3,0,0,0-14.07.78A15.81,15.81,0,0,0,132.28,10a15.43,15.43,0,0,0-2.08,7.84,15.72,15.72,0,0,0,7.74,13.59,15.39,15.39,0,0,0,14.52.59,15.43,15.43,0,0,0,5.38-4.32l.63-.79-3.16-2.46Z"/><polygon class="cls-2" points="100.02 33.26 104.44 33.26 115.01 10.51 125.07 33.26 129.42 33.26 115.14 0.75 100.02 33.26"/><polygon class="cls-2" points="159.69 33.26 164.11 33.26 174.68 10.51 184.74 33.26 189.09 33.26 174.81 0.75 159.69 33.26"/><path class="cls-2" d="M213,7.18a14.12,14.12,0,0,0-4.85-3.44,15.08,15.08,0,0,0-6.06-1.21h-9.26V33.26h9.26a15.21,15.21,0,0,0,6.06-1.21,14.06,14.06,0,0,0,4.86-3.5,15.78,15.78,0,0,0,3-4.91,16.64,16.64,0,0,0,0-11.58A15.44,15.44,0,0,0,213,7.18Zm-16.18-.62h5.27a10.28,10.28,0,0,1,8,3.35,10.73,10.73,0,0,1,2.17,3.57,13.19,13.19,0,0,1,0,8.77A10.82,10.82,0,0,1,210,25.84a10.09,10.09,0,0,1-8,3.43h-5.27Z"/><polygon class="cls-2" points="221.65 33.26 242.26 33.26 242.26 29.18 225.64 29.18 225.64 19.91 238.59 19.91 238.59 15.88 225.64 15.88 225.64 6.56 242.26 6.56 242.26 2.53 221.65 2.53 221.65 33.26"/><polygon class="cls-2" points="247.86 0.03 247.86 33.26 251.85 33.26 251.85 12.63 263.76 29.44 275.48 12.71 275.48 33.26 279.47 33.26 279.47 0 263.75 22.47 247.86 0.03"/><g id="Y"><polygon class="cls-3" points="309.94 2.46 289.08 33.26 293.09 33.26 313.96 2.46 309.94 2.46"/><polygon class="cls-4" points="290.76 2.46 286.74 2.46 296.76 17.09 298.77 14.13 290.76 2.46"/></g><polygon class="cls-3" points="15.41 33.28 15.41 28.36 4.92 17.87 15.41 7.38 15.41 2.46 0 17.87 15.41 33.28"/><polygon class="cls-3" points="317.13 2.46 317.13 7.38 327.61 17.87 317.13 28.36 317.13 33.28 332.53 17.87 317.13 2.46"/></g></g></g></svg>