<svg clip-rule="evenodd" fill-rule="evenodd" stroke-miterlimit="10" viewBox="0 0 333 39" xmlns="http://www.w3.org/2000/svg"><g fill-rule="nonzero"><g fill="#fff"><path d="m46 12c-.681-1.799-1.699-3.453-3-4.87-1.351-1.484-3.005-2.661-4.85-3.45-1.897-.806-3.939-1.218-6-1.21h-9.33v4h9.27c3.028-.114 5.957 1.113 8 3.35.946 1.042 1.68 2.258 2.16 3.58 1.016 2.834 1.016 5.936 0 8.77-.482 1.327-1.219 2.546-2.17 3.59-2.013 2.286-4.956 3.544-8 3.42h-9.26v4h9.27c2.061.008 4.103-.404 6-1.21 1.875-.785 3.552-1.977 4.91-3.49 1.292-1.439 2.309-3.103 3-4.91 1.384-3.732 1.384-7.838 0-11.57z" stroke="#fff" stroke-width="3"/><path d="m51.68 33.19h20.61v-4.08h-16.62v-9.27h12.95v-4.03h-12.95v-9.32h16.62v-4.03h-20.61z" stroke="#fff" stroke-width="3"/><path d="m100.61 2.46-10.23 22.82-10.22-22.82h-4.36l14.58 32.67 14.63-32.67z" stroke="#fff" stroke-width="3"/><path d="m154.7 25.21c-1.088 1.338-2.453 2.427-4 3.19-3.408 1.654-7.425 1.504-10.7-.4-1.752-1.03-3.206-2.498-4.22-4.26-2.091-3.622-2.091-8.098 0-11.72 1.012-1.773 2.466-3.255 4.22-4.3 1.747-1.032 3.741-1.571 5.77-1.56 1.601-.008 3.185.333 4.64 1 1.46.67 2.764 1.638 3.83 2.84l.66.74 3.1-2.68-.7-.75c-1.489-1.612-3.293-2.902-5.3-3.79-4.534-2.042-9.79-1.751-14.07.78-2.342 1.382-4.288 3.346-5.65 5.7-1.38 2.381-2.098 5.088-2.08 7.84-.016 5.576 2.936 10.759 7.74 13.59 4.432 2.611 9.89 2.833 14.52.59 2.096-1.015 3.936-2.492 5.38-4.32l.63-.79-3.16-2.46z"/><path d="m100.02 33.26h4.42l10.57-22.75 10.06 22.75h4.35l-14.28-32.51z"/><path d="m159.69 33.26h4.42l10.57-22.75 10.06 22.75h4.35l-14.28-32.51z"/><path d="m213 7.18c-1.354-1.478-3.008-2.651-4.85-3.44-1.915-.817-3.978-1.229-6.06-1.21h-9.26v30.73h9.26c2.081.016 4.144-.396 6.06-1.21 1.853-.804 3.51-1.998 4.86-3.5 1.292-1.439 2.309-3.103 3-4.91 1.386-3.735 1.386-7.845 0-11.58-.69-1.8-1.711-3.456-3.01-4.88zm-16.18-.62h5.27c3.028-.118 5.959 1.109 8 3.35.95 1.036 1.688 2.249 2.17 3.57 1 2.837 1 5.933 0 8.77-.509 1.334-1.277 2.554-2.26 3.59-2.01 2.292-4.954 3.555-8 3.43h-5.27z"/><path d="m221.65 33.26h20.61v-4.08h-16.62v-9.27h12.95v-4.03h-12.95v-9.32h16.62v-4.03h-20.61z"/><path d="m247.86.03v33.23h3.99v-20.63l11.91 16.81 11.72-16.73v20.55h3.99v-33.26l-15.72 22.47z"/></g><path d="m309.94 2.46-20.86 30.8h4.01l20.87-30.8z" fill="#d32e2e"/><path d="m290.76 2.46h-4.02l10.02 14.63 2.01-2.96z" fill="#fff"/><path d="m15.41 33.28v-4.92l-10.49-10.49 10.49-10.49v-4.92l-15.41 15.41z" fill="#d32e2e"/><path d="m317.13 2.46v4.92l10.48 10.49-10.48 10.49v4.92l15.4-15.41z" fill="#d32e2e"/></g></svg>